<svg width="777" height="747" viewBox="0 0 777 747" fill="none" xmlns="http://www.w3.org/2000/svg">
<path d="M389 0.93386C490.366 1.77867 578.602 36.4945 654.311 102.244C712.411 152.701 747.515 217.559 765.933 291.785C773.51 322.322 776.887 353.341 776.096 384.829C774.868 433.793 762.825 480.07 742.446 524.442C712.39 589.882 666.518 641.818 606.973 681.524C567.944 707.549 524.892 725.129 479.172 735.853C434.648 746.296 389.54 748.849 344.168 743.765C256.53 733.944 180.396 698.43 115.804 638.646C57.6708 584.84 23.5111 517.656 7.88153 440.524C0.544839 404.318 -1.14342 367.854 3.24353 331.19C8.06791 290.87 19.9799 252.612 38.1211 216.325C64.0019 164.557 98.6282 119.767 144.394 83.9228C189.807 48.3542 241.17 25.4242 297.01 12.0451C327.068 4.84311 357.542 0.836586 389 0.93386ZM299.328 284.036C288.429 279.317 277.7 280.711 266.716 284.183C260.974 285.998 254.766 286.686 248.715 287.099C239.269 287.745 229.702 287.067 220.324 288.147C207.365 289.638 195.466 294.374 186.125 303.944C178.283 311.978 177.579 321.912 183.759 331.243C188.311 338.115 194.559 342.898 202.098 346.071C216.768 352.245 232.093 353.277 247.671 351.468C258.17 350.25 268.228 347.441 276.959 341.087C287.294 333.567 290.408 325.325 287.538 313.329C285.176 303.455 287.871 295.301 295.853 288.913C297.344 287.72 298.601 286.236 300.692 284.898C301.535 286.115 302.453 287.286 303.209 288.555C311.21 301.982 319.201 315.416 327.154 328.872C328.922 331.863 330.672 334.881 332.182 338.006C334.147 342.074 332.673 345.214 328.818 347.085C326.154 348.378 323.282 349.291 320.436 350.158C304.112 355.129 291.147 364.656 283.02 379.662C278.233 388.503 273.838 397.878 271.28 407.546C263.368 437.45 264.529 467.968 267.524 498.392C270.743 531.096 278.241 562.987 286.712 594.683C288.186 600.196 290.967 603.628 295.869 605.786C299.536 600.858 298.873 595.767 297.699 590.405C290.41 557.108 281.862 524.047 278.429 490.009C275.806 464.001 276.032 438.129 282.078 412.532C288.674 384.606 303.015 364.208 333.51 359.314C341.111 358.094 343.179 355.427 344.047 347.792C345.121 338.343 341.248 330.706 335.924 323.351C329.303 314.205 322.185 305.273 316.772 295.428C302.614 269.679 302.15 243.301 316.091 217.2C323.595 203.15 335.636 196.05 351.714 197.092C368.156 198.158 382.484 203.762 388.192 220.727C391.326 230.044 393.05 240.166 393.451 250.005C394.407 273.467 386.538 294.85 374.917 314.813C364.039 333.499 361.253 343.928 378.7 361.061C375.677 368.685 372.24 376.069 369.808 383.771C365.534 397.308 369.08 407.713 380.326 416.409C383.589 418.932 387.151 421.068 390.964 423.643C370.883 433.051 351.136 442.449 331.254 451.551C322.553 455.535 316.848 451.991 317.039 442.536C317.345 427.271 318.312 412.021 318.871 396.759C318.915 395.538 317.961 394.279 317.251 392.48C311.653 399.628 311.024 406.749 310.973 413.969C310.899 424.442 310.323 434.968 311.158 445.376C312.073 456.785 319.329 461.197 330.434 458.251C333.304 457.489 336.184 456.55 338.845 455.252C353.93 447.895 368.93 440.364 383.999 432.973C394.138 428 404.284 423.032 414.544 418.316C419.405 416.082 424.709 416.302 428.613 419.972C431.981 423.137 432.283 428.109 430.124 432.073C424.228 442.903 417.626 453.316 408.218 461.581C381.776 484.812 350.233 496.689 316.16 502.971C309.233 504.248 302.353 505.776 295.451 507.188C295.412 507.996 295.374 508.804 295.335 509.612C296.834 510.058 298.396 511.032 299.82 510.859C306.095 510.099 312.354 509.142 318.574 508.013C355.443 501.321 389.032 487.475 417.143 462.066C422.505 457.22 427.146 451.577 432.707 445.679C433.372 447.883 433.678 448.65 433.833 449.447C442.438 493.639 446.883 538.369 450.856 583.148C451.396 589.233 453.806 593.786 459.321 598.963C460.379 593.303 462.197 588.686 461.913 584.202C460.808 566.758 459.126 549.348 457.481 531.942C456.422 520.731 455.054 509.548 453.779 497.934C456.279 498.071 458.235 498.197 460.193 498.282C473.493 498.863 486.8 500.015 500.091 499.851C513.842 499.681 527.173 496.532 539.442 489.986C547.46 485.708 551.364 479.838 548.673 472.179C545.893 464.271 548.34 459.536 552.959 453.528C562.769 440.767 560.697 427.596 547.85 417.784C542.362 413.592 536.082 410.294 529.815 407.32C526.467 405.731 525.137 404.444 525.503 400.483C526.616 388.441 521.163 379.495 510.183 374.469C507.177 373.093 504.02 371.971 500.839 371.064C487.552 367.277 476.843 370.634 470.882 383.073C462.171 401.247 449.732 418.313 450.226 440.475C447.029 438.383 442.871 436.431 441.832 433.407C438.168 422.742 436.893 412.07 442.376 401.028C448.704 388.282 454.183 375.044 459.058 361.665C463.759 348.766 459.925 337.097 448.256 330.014C440.894 325.546 432.438 322.067 424.022 320.328C409.539 317.336 399.425 323.056 392.13 336.022C390.584 338.771 388.712 341.344 387.252 344.135C385.494 347.495 383.276 348.145 380.211 346.111C380.074 330.195 381.243 325.725 388.929 312.28C403.386 286.991 409.226 260.157 404.057 231.14C399.086 203.236 386.786 189.908 360.132 185.458C340.09 182.111 323.414 187.754 311.276 205.034C295.218 227.897 291.826 252.571 299.476 279.128C299.961 280.812 299.837 282.672 299.328 284.036ZM509.509 142.705C503.537 143.143 497.529 143.303 491.6 144.069C470.839 146.752 452.017 154.049 436.445 168.448C426.8 177.366 421.343 188.137 425.235 201.453C426.824 206.892 430.123 211.928 433.167 216.822C437.149 223.224 437.339 227.508 432.226 233.001C429.779 235.631 426.53 237.518 423.63 239.723C419.621 242.769 415.599 245.797 411.612 248.811C416.503 254.287 421.933 256.001 428.225 256.375C441.554 257.169 453.974 253.949 465.905 248.495C474.053 244.771 482.221 244.087 491.127 245.388C517.13 249.187 542.931 248.873 567.453 237.757C576.484 233.663 585.813 229.677 593.811 223.967C611.666 211.223 613.965 190.472 600.346 173.374C593.151 164.34 583.837 157.965 573.44 153.227C553.429 144.107 532.097 142.551 509.509 142.705ZM206.5 141.069C199.501 141.069 192.499 140.95 185.503 141.1C175.858 141.306 169.371 146.067 168.758 155.425C167.944 167.833 168.091 180.386 168.979 192.794C169.595 201.409 175.158 206.21 183.856 206.925C192.629 207.647 201.531 208.172 210.278 207.5C222.049 206.596 231.86 209.619 240.128 218.084C248.21 226.358 257.811 232.17 269.235 234.552C276.557 236.079 283.955 237.365 290.639 230.915C285.181 223.98 279.774 217.107 274.225 210.055C279.01 208.326 283.713 206.738 288.329 204.928C294.229 202.616 298.151 198.457 298.328 191.907C298.639 180.432 299.307 168.896 298.486 157.482C297.639 145.718 291.478 141.081 279.492 141.073C255.495 141.058 231.498 141.069 206.5 141.069ZM364.748 236.139C360.486 241.972 362.811 248.358 363.474 254.475C364.56 264.474 366.162 274.417 367.552 284.42C362.292 285.752 357.934 286.762 353.645 288.01C352.607 288.312 351.798 289.402 350.884 290.13C351.846 290.728 352.775 291.771 353.776 291.846C357.423 292.117 361.098 292.215 364.754 292.102C372.307 291.87 374.568 288.69 373.276 281.104C371.434 270.287 369.738 259.443 368.174 248.582C367.306 242.555 369.395 240.206 375.417 238.905C378.218 238.3 380.864 236.977 383.581 235.979C377.277 234.132 371.257 232.44 364.748 236.139Z" fill="#63C57E"/>
</svg>
